<svg xmlns="http://www.w3.org/2000/svg"  viewBox="0 0 333333 333333" shape-rendering="geometricPrecision" text-rendering="geometricPrecision" image-rendering="optimizeQuality" fill-rule="evenodd" clip-rule="evenodd"><path d="M166667 0c46023 0 87690 18655 117851 48816s48816 71828 48816 117851-18655 87690-48816 117851-71828 48816-117851 48816-87690-18655-117851-48816S0 212690 0 166667 18655 78977 48816 48816 120644 0 166667 0zm90444 118058c1307-4375 0-7614-6250-7614h-20739c-5284 0-7670 2784-9034 5852 0 0-10511 25682-25455 42387-4830 4830-7045 6364-9659 6364-1307 0-3295-1534-3295-5909v-41024c0-5284-1478-7614-5852-7614h-32557c-3296 0-5284 2443-5284 4773 0 5000 7443 6137 8239 20171v30512c0 6705-1193 7898-3864 7898-7046 0-24092-25796-34262-55342-1989-5739-3978-8069-9262-8069H79098c-5909 0-7102 2784-7102 5852 0 5511 7045 32728 32728 68695 17103 24603 41251 37898 63183 37898 13182 0 14773-2954 14773-8069v-18580c0-5909 1250-7102 5398-7102 3068 0 8352 1534 20625 13409 14035 14034 16364 20341 24262 20341h20739c5909 0 8864-2954 7159-8807-1875-5796-8580-14261-17501-24262-4830-5682-12046-11875-14261-14944-3068-3978-2216-5682 0-9205 0 0 25228-35569 27898-47615h113zm16184-58019c-27287-27287-64987-44165-106628-44165-41642 0-79341 16878-106628 44165s-44165 64987-44165 106628c0 41642 16878 79341 44165 106628s64987 44165 106628 44165c41642 0 79341-16878 106628-44165s44165-64987 44165-106628c0-41642-16878-79341-44165-106628z" fill="#45668e" fill-rule="nonzero"/></svg>